<mxfile modified="2022-12-18T12:35:05.156Z" host="app.diagrams.net" agent="5.0 (Windows NT 10.0; Win64; x64) AppleWebKit/537.36 (KHTML, like Gecko) Chrome/108.0.0.0 Safari/537.36" etag="kJg_u12_ztHtC6AogW_9" version="20.7.3" type="github">
  <diagram id="Ht1M8jgEwFfnCIfOTk4-" name="Page-1">
    <mxGraphModel dx="1980" dy="1175" grid="1" gridSize="10" guides="1" tooltips="1" connect="1" arrows="1" fold="1" page="1" pageScale="1" pageWidth="827" pageHeight="1169" math="0" shadow="0">
      <root>
        <mxCell id="0" />
        <mxCell id="1" parent="0" />
        <mxCell id="jZVaUwOg5UY3L9NAnvdq-71" value="AWS Cloud" style="points=[[0,0],[0.25,0],[0.5,0],[0.75,0],[1,0],[1,0.25],[1,0.5],[1,0.75],[1,1],[0.75,1],[0.5,1],[0.25,1],[0,1],[0,0.75],[0,0.5],[0,0.25]];outlineConnect=0;gradientColor=none;html=1;whiteSpace=wrap;fontSize=12;fontStyle=0;shape=mxgraph.aws4.group;grIcon=mxgraph.aws4.group_aws_cloud_alt;strokeColor=#232F3E;fillColor=none;verticalAlign=top;align=left;spacingLeft=30;fontColor=#232F3E;dashed=0;labelBackgroundColor=none;container=1;pointerEvents=0;collapsible=0;recursiveResize=0;" parent="1" vertex="1">
          <mxGeometry x="80" y="160" width="960" height="800" as="geometry" />
        </mxCell>
        <mxCell id="tGOJSUKgPJt2CwX8GFTT-42" value="&lt;b&gt;&lt;font color=&quot;#000000&quot;&gt;Growth-Environment VPC&lt;/font&gt;&lt;/b&gt;" style="points=[[0,0],[0.25,0],[0.5,0],[0.75,0],[1,0],[1,0.25],[1,0.5],[1,0.75],[1,1],[0.75,1],[0.5,1],[0.25,1],[0,1],[0,0.75],[0,0.5],[0,0.25]];outlineConnect=0;gradientColor=none;html=1;whiteSpace=wrap;fontSize=12;fontStyle=0;container=1;pointerEvents=0;collapsible=0;recursiveResize=0;shape=mxgraph.aws4.group;grIcon=mxgraph.aws4.group_vpc;strokeColor=#248814;fillColor=none;verticalAlign=top;align=left;spacingLeft=30;fontColor=#AAB7B8;dashed=0;shadow=0;labelBackgroundColor=none;labelBorderColor=none;sketch=0;" parent="jZVaUwOg5UY3L9NAnvdq-71" vertex="1">
          <mxGeometry x="80" y="80" width="800" height="640" as="geometry" />
        </mxCell>
        <mxCell id="tGOJSUKgPJt2CwX8GFTT-43" value="AZ us-west-1b" style="fillColor=none;strokeColor=#147EBA;dashed=1;verticalAlign=top;fontStyle=0;fontColor=#147EBA;shadow=0;labelBackgroundColor=none;labelBorderColor=none;sketch=0;" parent="tGOJSUKgPJt2CwX8GFTT-42" vertex="1">
          <mxGeometry x="40" y="40" width="720" height="240" as="geometry" />
        </mxCell>
        <mxCell id="tGOJSUKgPJt2CwX8GFTT-53" value="AZ us-west-1c" style="fillColor=none;strokeColor=#147EBA;dashed=1;verticalAlign=top;fontStyle=0;fontColor=#147EBA;shadow=0;labelBackgroundColor=none;labelBorderColor=none;sketch=0;" parent="tGOJSUKgPJt2CwX8GFTT-42" vertex="1">
          <mxGeometry x="40.5" y="357" width="720" height="240" as="geometry" />
        </mxCell>
        <mxCell id="rlHpW61gYLTr413FaqD1-22" value="" style="edgeStyle=orthogonalEdgeStyle;rounded=0;orthogonalLoop=1;jettySize=auto;html=1;dashed=1;" edge="1" parent="tGOJSUKgPJt2CwX8GFTT-42" source="rlHpW61gYLTr413FaqD1-16" target="rlHpW61gYLTr413FaqD1-19">
          <mxGeometry relative="1" as="geometry" />
        </mxCell>
        <mxCell id="rlHpW61gYLTr413FaqD1-16" value="Internet Gateway" style="outlineConnect=0;dashed=0;verticalLabelPosition=bottom;verticalAlign=top;align=center;html=1;shape=mxgraph.aws3.internet_gateway;fillColor=#F58534;gradientColor=none;" vertex="1" parent="tGOJSUKgPJt2CwX8GFTT-42">
          <mxGeometry x="40" y="297" width="40" height="43" as="geometry" />
        </mxCell>
        <mxCell id="rlHpW61gYLTr413FaqD1-19" value="Router" style="outlineConnect=0;dashed=0;verticalLabelPosition=bottom;verticalAlign=top;align=center;html=1;shape=mxgraph.aws3.router;fillColor=#F58536;gradientColor=none;" vertex="1" parent="tGOJSUKgPJt2CwX8GFTT-42">
          <mxGeometry x="170" y="293.62" width="50" height="49.75" as="geometry" />
        </mxCell>
        <mxCell id="rlHpW61gYLTr413FaqD1-20" value="" style="edgeStyle=orthogonalEdgeStyle;rounded=0;orthogonalLoop=1;jettySize=auto;html=1;dashed=1;exitX=1;exitY=0.5;exitDx=0;exitDy=0;exitPerimeter=0;endArrow=none;" edge="1" parent="tGOJSUKgPJt2CwX8GFTT-42" source="rlHpW61gYLTr413FaqD1-16" target="rlHpW61gYLTr413FaqD1-19">
          <mxGeometry relative="1" as="geometry">
            <mxPoint x="240" y="558.5" as="sourcePoint" />
            <mxPoint x="560.5263157894738" y="595" as="targetPoint" />
          </mxGeometry>
        </mxCell>
        <mxCell id="tGOJSUKgPJt2CwX8GFTT-61" style="edgeStyle=orthogonalEdgeStyle;rounded=0;orthogonalLoop=1;jettySize=auto;html=1;exitX=0.5;exitY=1;exitDx=0;exitDy=0;fontColor=#000000;" parent="jZVaUwOg5UY3L9NAnvdq-71" source="tGOJSUKgPJt2CwX8GFTT-42" target="tGOJSUKgPJt2CwX8GFTT-42" edge="1">
          <mxGeometry relative="1" as="geometry" />
        </mxCell>
        <mxCell id="rlHpW61gYLTr413FaqD1-15" value="" style="edgeStyle=orthogonalEdgeStyle;rounded=0;orthogonalLoop=1;jettySize=auto;html=1;dashed=1;" edge="1" parent="jZVaUwOg5UY3L9NAnvdq-71" source="rlHpW61gYLTr413FaqD1-14">
          <mxGeometry relative="1" as="geometry">
            <mxPoint x="120" y="400" as="targetPoint" />
          </mxGeometry>
        </mxCell>
        <mxCell id="rlHpW61gYLTr413FaqD1-14" value="Internet" style="aspect=fixed;perimeter=ellipsePerimeter;html=1;align=center;shadow=0;dashed=0;spacingTop=3;image;image=img/lib/active_directory/internet_globe.svg;" vertex="1" parent="jZVaUwOg5UY3L9NAnvdq-71">
          <mxGeometry x="20" y="381.25" width="37.5" height="37.5" as="geometry" />
        </mxCell>
        <mxCell id="-QjtrjUzRDEMRZ5MF8oH-47" value="&lt;h3&gt;Architecture Diagram for Growth-&amp;lt;ENV&amp;gt; VPC &amp;amp; Subnets&lt;/h3&gt;" style="text;html=1;resizable=0;points=[];autosize=1;align=center;verticalAlign=middle;spacingTop=-4;fontSize=30;fontStyle=1;labelBackgroundColor=none;labelPosition=center;verticalLabelPosition=middle;" parent="1" vertex="1">
          <mxGeometry x="82" width="960" height="120" as="geometry" />
        </mxCell>
        <mxCell id="SCVMTBWpLvtzJIhz15lM-1" value="" style="line;strokeWidth=2;html=1;fontSize=14;labelBackgroundColor=none;" parent="1" vertex="1">
          <mxGeometry x="32.5" y="101.5" width="1057.5" height="10" as="geometry" />
        </mxCell>
        <mxCell id="rlHpW61gYLTr413FaqD1-3" value="Protected Subnet 1" style="sketch=0;outlineConnect=0;gradientColor=none;html=1;whiteSpace=wrap;fontSize=12;fontStyle=0;shape=mxgraph.aws4.group;grIcon=mxgraph.aws4.group_subnet;strokeColor=#007FFF;fillColor=none;verticalAlign=top;align=left;spacingLeft=30;fontColor=#007FFF;dashed=0;shadow=0;labelBackgroundColor=none;labelBorderColor=none;" vertex="1" parent="1">
          <mxGeometry x="481.5" y="320" width="160" height="160" as="geometry" />
        </mxCell>
        <mxCell id="rlHpW61gYLTr413FaqD1-4" value="Public Subnet 1" style="shape=mxgraph.ibm.box;prType=subnet;fontStyle=0;verticalAlign=top;align=left;spacingLeft=32;spacingTop=4;fillColor=none;rounded=0;whiteSpace=wrap;html=1;strokeColor=#00882B;strokeWidth=1;dashed=1;container=1;spacing=-4;collapsible=0;expand=0;recursiveResize=0;shadow=0;labelBackgroundColor=none;labelBorderColor=none;sketch=0;" vertex="1" parent="1">
          <mxGeometry x="240" y="320" width="160" height="160" as="geometry" />
        </mxCell>
        <mxCell id="rlHpW61gYLTr413FaqD1-10" value="NAT Gateway" style="outlineConnect=0;dashed=0;verticalLabelPosition=bottom;verticalAlign=top;align=center;html=1;shape=mxgraph.aws3.vpc_nat_gateway;fillColor=#F58534;gradientColor=none;" vertex="1" parent="rlHpW61gYLTr413FaqD1-4">
          <mxGeometry x="100" y="66.5" width="30" height="30" as="geometry" />
        </mxCell>
        <mxCell id="rlHpW61gYLTr413FaqD1-27" value="UI Servers" style="sketch=0;html=1;aspect=fixed;strokeColor=none;shadow=0;align=center;verticalAlign=top;fillColor=#3B8DF1;shape=mxgraph.gcp2.servers_stacked;labelPosition=center;verticalLabelPosition=bottom;" vertex="1" parent="rlHpW61gYLTr413FaqD1-4">
          <mxGeometry x="27" y="83.5" width="23" height="23" as="geometry" />
        </mxCell>
        <mxCell id="rlHpW61gYLTr413FaqD1-11" value="Security &#xa;group A" style="fillColor=none;strokeColor=#DD3522;verticalAlign=bottom;fontStyle=0;fontColor=#DD3522;labelPosition=center;verticalLabelPosition=top;align=center;" vertex="1" parent="rlHpW61gYLTr413FaqD1-4">
          <mxGeometry x="8.5" y="60" width="60" height="70" as="geometry" />
        </mxCell>
        <mxCell id="rlHpW61gYLTr413FaqD1-5" value="Private Subnet 1" style="sketch=0;outlineConnect=0;gradientColor=none;html=1;whiteSpace=wrap;fontSize=12;fontStyle=0;shape=mxgraph.aws4.group;grIcon=mxgraph.aws4.group_subnet;strokeColor=#007FFF;fillColor=none;verticalAlign=top;align=left;spacingLeft=30;fontColor=#007FFF;dashed=0;shadow=0;labelBackgroundColor=none;labelBorderColor=none;" vertex="1" parent="1">
          <mxGeometry x="721" y="320" width="160" height="160" as="geometry" />
        </mxCell>
        <mxCell id="rlHpW61gYLTr413FaqD1-6" value="Protected Subnet 2" style="sketch=0;outlineConnect=0;gradientColor=none;html=1;whiteSpace=wrap;fontSize=12;fontStyle=0;shape=mxgraph.aws4.group;grIcon=mxgraph.aws4.group_subnet;strokeColor=#007FFF;fillColor=none;verticalAlign=top;align=left;spacingLeft=30;fontColor=#007FFF;dashed=0;shadow=0;labelBackgroundColor=none;labelBorderColor=none;" vertex="1" parent="1">
          <mxGeometry x="480" y="635" width="160" height="160" as="geometry" />
        </mxCell>
        <mxCell id="rlHpW61gYLTr413FaqD1-7" value="Public Subnet 2" style="shape=mxgraph.ibm.box;prType=subnet;fontStyle=0;verticalAlign=top;align=left;spacingLeft=32;spacingTop=4;fillColor=none;rounded=0;whiteSpace=wrap;html=1;strokeColor=#00882B;strokeWidth=1;dashed=1;container=1;spacing=-4;collapsible=0;expand=0;recursiveResize=0;shadow=0;labelBackgroundColor=none;labelBorderColor=none;sketch=0;" vertex="1" parent="1">
          <mxGeometry x="240" y="635" width="160" height="160" as="geometry" />
        </mxCell>
        <mxCell id="rlHpW61gYLTr413FaqD1-8" value="Private Subnet 2" style="sketch=0;outlineConnect=0;gradientColor=none;html=1;whiteSpace=wrap;fontSize=12;fontStyle=0;shape=mxgraph.aws4.group;grIcon=mxgraph.aws4.group_subnet;strokeColor=#007FFF;fillColor=none;verticalAlign=top;align=left;spacingLeft=30;fontColor=#007FFF;dashed=0;shadow=0;labelBackgroundColor=none;labelBorderColor=none;" vertex="1" parent="1">
          <mxGeometry x="721" y="635" width="160" height="160" as="geometry" />
        </mxCell>
        <mxCell id="rlHpW61gYLTr413FaqD1-18" value="" style="edgeStyle=orthogonalEdgeStyle;rounded=0;orthogonalLoop=1;jettySize=auto;html=1;dashed=1;exitX=0.5;exitY=0;exitDx=0;exitDy=0;exitPerimeter=0;startArrow=none;entryX=0.722;entryY=0.998;entryDx=0;entryDy=0;entryPerimeter=0;" edge="1" parent="1" source="rlHpW61gYLTr413FaqD1-19" target="rlHpW61gYLTr413FaqD1-4">
          <mxGeometry relative="1" as="geometry" />
        </mxCell>
        <mxCell id="rlHpW61gYLTr413FaqD1-23" value="Route Tables" style="edgeLabel;html=1;align=center;verticalAlign=middle;resizable=0;points=[];" vertex="1" connectable="0" parent="rlHpW61gYLTr413FaqD1-18">
          <mxGeometry x="-0.1592" y="1" relative="1" as="geometry">
            <mxPoint x="2" y="-10" as="offset" />
          </mxGeometry>
        </mxCell>
        <mxCell id="rlHpW61gYLTr413FaqD1-24" value="" style="edgeStyle=orthogonalEdgeStyle;rounded=0;orthogonalLoop=1;jettySize=auto;html=1;dashed=1;startArrow=none;exitX=0.248;exitY=1.004;exitDx=0;exitDy=0;exitPerimeter=0;" edge="1" parent="1" source="rlHpW61gYLTr413FaqD1-4">
          <mxGeometry relative="1" as="geometry">
            <mxPoint x="365.0000000000001" y="543.62" as="sourcePoint" />
            <mxPoint x="330" y="560" as="targetPoint" />
          </mxGeometry>
        </mxCell>
        <mxCell id="rlHpW61gYLTr413FaqD1-25" value="Route Tables" style="edgeLabel;html=1;align=center;verticalAlign=middle;resizable=0;points=[];" vertex="1" connectable="0" parent="rlHpW61gYLTr413FaqD1-24">
          <mxGeometry x="-0.1592" y="1" relative="1" as="geometry">
            <mxPoint x="-15" y="-19" as="offset" />
          </mxGeometry>
        </mxCell>
        <mxCell id="rlHpW61gYLTr413FaqD1-26" value="Security &#xa;group B" style="fillColor=none;strokeColor=#DD3522;verticalAlign=bottom;fontStyle=0;fontColor=#DD3522;labelPosition=center;verticalLabelPosition=top;align=center;" vertex="1" parent="1">
          <mxGeometry x="531.5" y="380" width="60" height="70" as="geometry" />
        </mxCell>
        <mxCell id="rlHpW61gYLTr413FaqD1-9" value="Backend &lt;br&gt;Servers" style="sketch=0;html=1;aspect=fixed;strokeColor=none;shadow=0;align=center;verticalAlign=top;fillColor=#3B8DF1;shape=mxgraph.gcp2.servers_stacked;labelPosition=center;verticalLabelPosition=bottom;" vertex="1" parent="1">
          <mxGeometry x="549.5" y="404.5" width="23" height="23" as="geometry" />
        </mxCell>
        <mxCell id="rlHpW61gYLTr413FaqD1-28" value="" style="edgeStyle=orthogonalEdgeStyle;rounded=0;orthogonalLoop=1;jettySize=auto;html=1;dashed=1;" edge="1" parent="1" source="rlHpW61gYLTr413FaqD1-10" target="rlHpW61gYLTr413FaqD1-3">
          <mxGeometry relative="1" as="geometry">
            <Array as="points">
              <mxPoint x="450" y="402" />
              <mxPoint x="450" y="402" />
            </Array>
          </mxGeometry>
        </mxCell>
        <mxCell id="rlHpW61gYLTr413FaqD1-29" value="Internet&lt;br&gt;Connection" style="edgeLabel;html=1;align=center;verticalAlign=middle;resizable=0;points=[];" vertex="1" connectable="0" parent="rlHpW61gYLTr413FaqD1-28">
          <mxGeometry x="0.177" y="2" relative="1" as="geometry">
            <mxPoint as="offset" />
          </mxGeometry>
        </mxCell>
        <mxCell id="rlHpW61gYLTr413FaqD1-30" value="Security &#xa;group C" style="fillColor=none;strokeColor=#DD3522;verticalAlign=bottom;fontStyle=0;fontColor=#DD3522;labelPosition=center;verticalLabelPosition=top;align=center;" vertex="1" parent="1">
          <mxGeometry x="771" y="380" width="60" height="70" as="geometry" />
        </mxCell>
        <mxCell id="rlHpW61gYLTr413FaqD1-31" value="Backend &lt;br&gt;Servers" style="sketch=0;html=1;aspect=fixed;strokeColor=none;shadow=0;align=center;verticalAlign=top;fillColor=#3B8DF1;shape=mxgraph.gcp2.servers_stacked;labelPosition=center;verticalLabelPosition=bottom;" vertex="1" parent="1">
          <mxGeometry x="789" y="404.5" width="23" height="23" as="geometry" />
        </mxCell>
        <mxCell id="rlHpW61gYLTr413FaqD1-32" value="NAT Gateway" style="outlineConnect=0;dashed=0;verticalLabelPosition=bottom;verticalAlign=top;align=center;html=1;shape=mxgraph.aws3.vpc_nat_gateway;fillColor=#F58534;gradientColor=none;" vertex="1" parent="1">
          <mxGeometry x="341" y="703.5" width="30" height="30" as="geometry" />
        </mxCell>
        <mxCell id="rlHpW61gYLTr413FaqD1-33" value="UI Servers" style="sketch=0;html=1;aspect=fixed;strokeColor=none;shadow=0;align=center;verticalAlign=top;fillColor=#3B8DF1;shape=mxgraph.gcp2.servers_stacked;labelPosition=center;verticalLabelPosition=bottom;" vertex="1" parent="1">
          <mxGeometry x="268" y="720.5" width="23" height="23" as="geometry" />
        </mxCell>
        <mxCell id="rlHpW61gYLTr413FaqD1-34" value="Security &#xa;group A" style="fillColor=none;strokeColor=#DD3522;verticalAlign=bottom;fontStyle=0;fontColor=#DD3522;labelPosition=center;verticalLabelPosition=top;align=center;" vertex="1" parent="1">
          <mxGeometry x="249.5" y="697" width="60" height="70" as="geometry" />
        </mxCell>
        <mxCell id="rlHpW61gYLTr413FaqD1-35" value="Security &#xa;group B" style="fillColor=none;strokeColor=#DD3522;verticalAlign=bottom;fontStyle=0;fontColor=#DD3522;labelPosition=center;verticalLabelPosition=top;align=center;" vertex="1" parent="1">
          <mxGeometry x="532.5" y="697" width="60" height="70" as="geometry" />
        </mxCell>
        <mxCell id="rlHpW61gYLTr413FaqD1-36" value="Backend &lt;br&gt;Servers" style="sketch=0;html=1;aspect=fixed;strokeColor=none;shadow=0;align=center;verticalAlign=top;fillColor=#3B8DF1;shape=mxgraph.gcp2.servers_stacked;labelPosition=center;verticalLabelPosition=bottom;" vertex="1" parent="1">
          <mxGeometry x="550.5" y="721.5" width="23" height="23" as="geometry" />
        </mxCell>
        <mxCell id="rlHpW61gYLTr413FaqD1-37" value="" style="edgeStyle=orthogonalEdgeStyle;rounded=0;orthogonalLoop=1;jettySize=auto;html=1;dashed=1;" edge="1" parent="1" source="rlHpW61gYLTr413FaqD1-32">
          <mxGeometry relative="1" as="geometry">
            <mxPoint x="480" y="719" as="targetPoint" />
            <Array as="points">
              <mxPoint x="451" y="719" />
              <mxPoint x="451" y="719" />
            </Array>
          </mxGeometry>
        </mxCell>
        <mxCell id="rlHpW61gYLTr413FaqD1-38" value="Internet&lt;br&gt;Connection" style="edgeLabel;html=1;align=center;verticalAlign=middle;resizable=0;points=[];" vertex="1" connectable="0" parent="rlHpW61gYLTr413FaqD1-37">
          <mxGeometry x="0.177" y="2" relative="1" as="geometry">
            <mxPoint as="offset" />
          </mxGeometry>
        </mxCell>
        <mxCell id="rlHpW61gYLTr413FaqD1-39" value="Security &#xa;group C" style="fillColor=none;strokeColor=#DD3522;verticalAlign=bottom;fontStyle=0;fontColor=#DD3522;labelPosition=center;verticalLabelPosition=top;align=center;" vertex="1" parent="1">
          <mxGeometry x="772" y="697" width="60" height="70" as="geometry" />
        </mxCell>
        <mxCell id="rlHpW61gYLTr413FaqD1-40" value="Backend &lt;br&gt;Servers" style="sketch=0;html=1;aspect=fixed;strokeColor=none;shadow=0;align=center;verticalAlign=top;fillColor=#3B8DF1;shape=mxgraph.gcp2.servers_stacked;labelPosition=center;verticalLabelPosition=bottom;" vertex="1" parent="1">
          <mxGeometry x="790" y="721.5" width="23" height="23" as="geometry" />
        </mxCell>
        <mxCell id="rlHpW61gYLTr413FaqD1-41" value="" style="edgeStyle=orthogonalEdgeStyle;rounded=0;orthogonalLoop=1;jettySize=auto;html=1;dashed=1;exitX=1;exitY=0.5;exitDx=0;exitDy=0;exitPerimeter=0;startArrow=none;entryX=0.994;entryY=0;entryDx=0;entryDy=0;entryPerimeter=0;" edge="1" parent="1" source="rlHpW61gYLTr413FaqD1-19" target="rlHpW61gYLTr413FaqD1-7">
          <mxGeometry relative="1" as="geometry">
            <mxPoint x="365" y="543.6199999999999" as="sourcePoint" />
            <mxPoint x="365.51999999999975" y="489.67999999999995" as="targetPoint" />
            <Array as="points">
              <mxPoint x="400" y="559" />
              <mxPoint x="400" y="635" />
            </Array>
          </mxGeometry>
        </mxCell>
        <mxCell id="rlHpW61gYLTr413FaqD1-42" value="Route Tables" style="edgeLabel;html=1;align=center;verticalAlign=middle;resizable=0;points=[];" vertex="1" connectable="0" parent="rlHpW61gYLTr413FaqD1-41">
          <mxGeometry x="-0.1592" y="1" relative="1" as="geometry">
            <mxPoint x="1" y="35" as="offset" />
          </mxGeometry>
        </mxCell>
        <mxCell id="rlHpW61gYLTr413FaqD1-43" value="" style="edgeStyle=orthogonalEdgeStyle;rounded=0;orthogonalLoop=1;jettySize=auto;html=1;dashed=1;startArrow=none;exitX=0.037;exitY=0;exitDx=0;exitDy=0;exitPerimeter=0;" edge="1" parent="1" source="rlHpW61gYLTr413FaqD1-7">
          <mxGeometry relative="1" as="geometry">
            <mxPoint x="290" y="636" as="sourcePoint" />
            <mxPoint x="330" y="560" as="targetPoint" />
            <Array as="points">
              <mxPoint x="246" y="620" />
              <mxPoint x="246" y="610" />
              <mxPoint x="330" y="610" />
            </Array>
          </mxGeometry>
        </mxCell>
        <mxCell id="rlHpW61gYLTr413FaqD1-44" value="Route Tables" style="edgeLabel;html=1;align=center;verticalAlign=middle;resizable=0;points=[];" vertex="1" connectable="0" parent="rlHpW61gYLTr413FaqD1-43">
          <mxGeometry x="-0.1592" y="1" relative="1" as="geometry">
            <mxPoint x="-25" y="5" as="offset" />
          </mxGeometry>
        </mxCell>
      </root>
    </mxGraphModel>
  </diagram>
</mxfile>
